<svg version="1.1" id="Layer_1" xmlns="http://www.w3.org/2000/svg" xmlns:xlink="http://www.w3.org/1999/xlink" x="0px" y="0px"
	 width="100%" viewBox="0 0 512 512" enable-background="new 0 0 512 512" xml:space="preserve">
<path fill="#008B8B" opacity="1.000000" stroke="none" 
	d="
M335.000000,513.000000 
	C223.360458,513.000000 112.220909,513.000000 1.040681,513.000000 
	C1.040681,342.402100 1.040681,171.804184 1.040681,1.103135 
	C171.556213,1.103135 342.112518,1.103135 512.834412,1.103135 
	C512.834412,171.666534 512.834412,342.333252 512.834412,513.000000 
	C453.804169,513.000000 394.652069,513.000000 335.000000,513.000000 
M355.816498,380.267578 
	C395.637177,375.039581 424.586853,348.487610 430.887329,320.963837 
	C419.303925,317.714417 407.702332,314.459900 396.866028,311.420044 
	C392.552002,317.905884 389.223969,324.354797 384.566681,329.630219 
	C372.407318,343.403412 356.127197,347.699524 338.392059,348.578400 
	C304.972351,350.234497 277.705933,332.465576 266.485962,301.026703 
	C262.860870,290.869019 261.108704,280.319305 261.157166,268.980774 
	C319.441071,268.980774 377.153870,268.980774 435.096893,268.980774 
	C435.326141,251.192108 435.564972,233.888718 431.968536,216.828918 
	C426.243988,189.674240 414.143646,166.385132 390.431030,150.563156 
	C346.932465,121.539337 266.003815,124.110260 235.008987,199.466141 
	C222.329254,230.293564 221.119171,262.240051 227.823395,294.571533 
	C232.891830,319.014343 243.923798,340.367676 263.133514,356.773132 
	C289.810883,379.556030 321.265442,384.480835 355.816498,380.267578 
M78.997322,292.500000 
	C78.997322,320.444275 78.997322,348.388550 78.997322,376.490906 
	C91.529114,376.490906 103.571144,376.490906 115.930603,376.490906 
	C115.930603,374.339264 115.930588,372.526367 115.930595,370.713440 
	C115.930603,322.729462 116.406174,274.739166 115.769142,226.763672 
	C115.318901,192.855682 141.825958,169.968597 171.480148,168.977539 
	C180.520233,168.675415 189.606598,169.757751 198.670593,170.205978 
	C198.670593,158.365189 198.670593,146.139847 198.670593,133.621216 
	C181.824234,132.403244 165.456512,132.095993 149.852081,139.160187 
	C134.281921,146.208878 123.278572,157.924133 116.217300,173.738846 
	C115.657776,173.395462 115.098244,173.052063 114.538719,172.708679 
	C114.538719,160.839157 114.538719,148.969635 114.538719,137.212158 
	C102.313370,137.212158 90.757431,137.212158 78.997322,137.212158 
	C78.997322,188.896561 78.997322,240.198288 78.997322,292.500000 
z"/>
<path fill="#FDFEFE" opacity="1.000000" stroke="none" 
	d="
M355.382202,380.345398 
	C321.265442,384.480835 289.810883,379.556030 263.133514,356.773132 
	C243.923798,340.367676 232.891830,319.014343 227.823395,294.571533 
	C221.119171,262.240051 222.329254,230.293564 235.008987,199.466141 
	C266.003815,124.110260 346.932465,121.539337 390.431030,150.563156 
	C414.143646,166.385132 426.243988,189.674240 431.968536,216.828918 
	C435.564972,233.888718 435.326141,251.192108 435.096893,268.980774 
	C377.153870,268.980774 319.441071,268.980774 261.157166,268.980774 
	C261.108704,280.319305 262.860870,290.869019 266.485962,301.026703 
	C277.705933,332.465576 304.972351,350.234497 338.392059,348.578400 
	C356.127197,347.699524 372.407318,343.403412 384.566681,329.630219 
	C389.223969,324.354797 392.552002,317.905884 396.866028,311.420044 
	C407.702332,314.459900 419.303925,317.714417 430.887329,320.963837 
	C424.586853,348.487610 395.637177,375.039581 355.382202,380.345398 
M272.983521,199.561279 
	C266.048859,210.969574 262.051910,223.295258 261.136871,236.934113 
	C306.762085,236.934113 352.126953,236.934113 397.512970,236.934113 
	C397.639465,236.106674 397.803864,235.625336 397.769714,235.158508 
	C397.539062,232.003159 397.427612,228.827896 396.981720,225.701263 
	C393.482971,201.167435 382.192841,181.819626 358.617645,171.957138 
	C331.655426,160.677719 294.619568,165.730591 272.983521,199.561279 
z"/>
<path fill="#FDFEFE" opacity="1.000000" stroke="none" 
	d="
M78.997322,292.000000 
	C78.997322,240.198288 78.997322,188.896561 78.997322,137.212158 
	C90.757431,137.212158 102.313370,137.212158 114.538719,137.212158 
	C114.538719,148.969635 114.538719,160.839157 114.538719,172.708679 
	C115.098244,173.052063 115.657776,173.395462 116.217300,173.738846 
	C123.278572,157.924133 134.281921,146.208878 149.852081,139.160187 
	C165.456512,132.095993 181.824234,132.403244 198.670593,133.621216 
	C198.670593,146.139847 198.670593,158.365189 198.670593,170.205978 
	C189.606598,169.757751 180.520233,168.675415 171.480148,168.977539 
	C141.825958,169.968597 115.318901,192.855682 115.769142,226.763672 
	C116.406174,274.739166 115.930603,322.729462 115.930595,370.713440 
	C115.930588,372.526367 115.930603,374.339264 115.930603,376.490906 
	C103.571144,376.490906 91.529114,376.490906 78.997322,376.490906 
	C78.997322,348.388550 78.997322,320.444275 78.997322,292.000000 
z"/>
<path fill="#018B8B" opacity="1.000000" stroke="none" 
	d="
M273.159729,199.243057 
	C294.619568,165.730591 331.655426,160.677719 358.617645,171.957138 
	C382.192841,181.819626 393.482971,201.167435 396.981720,225.701263 
	C397.427612,228.827896 397.539062,232.003159 397.769714,235.158508 
	C397.803864,235.625336 397.639465,236.106674 397.512970,236.934113 
	C352.126953,236.934113 306.762085,236.934113 261.136871,236.934113 
	C262.051910,223.295258 266.048859,210.969574 273.159729,199.243057 
z"/>
</svg>