<?xml version="1.0" standalone="no"?>
<!DOCTYPE svg PUBLIC "-//W3C//DTD SVG 20010904//EN"
 "http://www.w3.org/TR/2001/REC-SVG-20010904/DTD/svg10.dtd">
<svg version="1.0" xmlns="http://www.w3.org/2000/svg"
 width="512.000000pt" height="512.000000pt" viewBox="0 0 512.000000 512.000000"
 preserveAspectRatio="xMidYMid meet">
<metadata>
Created by potrace 1.14, written by Peter Selinger 2001-2017
</metadata>
<g transform="translate(0.000000,512.000000) scale(0.100000,-0.100000)"
fill="#000000" stroke="none">
<path d="M430 5113 c-178 -30 -327 -154 -398 -330 l-27 -68 0 -2150 c0 -2071
1 -2152 19 -2205 51 -153 160 -267 313 -328 l68 -27 2150 0 c2071 0 2152 1
2205 19 153 51 267 160 328 313 l27 68 0 2150 c0 2071 -1 2152 -19 2205 -51
153 -160 267 -313 328 l-68 27 -2130 1 c-1172 1 -2141 -1 -2155 -3z m1548
-1505 l2 -188 -47 8 c-27 4 -109 7 -183 7 -116 0 -145 -3 -209 -24 -143 -47
-281 -164 -337 -286 -55 -119 -54 -105 -54 -967 l0 -798 -185 0 -185 0 0 1200
0 1200 180 0 180 0 0 -180 c0 -188 7 -214 37 -142 55 133 192 255 356 317 95
35 152 43 307 41 l135 -1 3 -187z m1617 148 c290 -76 505 -256 629 -528 78
-171 107 -320 113 -585 l6 -203 -873 0 -873 0 7 -72 c35 -357 206 -594 497
-687 131 -42 341 -45 476 -6 145 42 273 145 336 272 l37 72 72 -21 c167 -46
270 -77 275 -82 12 -11 -39 -122 -92 -202 -158 -236 -430 -376 -778 -400 -117
-7 -280 7 -395 36 -349 88 -615 347 -730 710 -96 302 -94 689 4 988 127 383
404 641 774 723 128 28 377 21 515 -15z"/>
<path d="M3134 3441 c-276 -68 -485 -319 -529 -633 l-6 -48 686 0 687 0 -7 68
c-26 261 -152 464 -348 564 -134 67 -329 87 -483 49z"/>
</g>
</svg>
